# Blender 4.1.1
# www.blender.org
mtllib PirateD12.mtl
o D12
v -0.029354 -0.007531 -0.026479
v -0.018157 -0.031968 -0.016367
v -0.008176 0.007556 -0.038673
v -0.039304 0.007572 -0.004170
v -0.024276 0.031993 -0.002576
v -0.034257 -0.007531 0.019730
v -0.021187 -0.031968 0.012192
v -0.016109 0.007556 0.036096
v -0.009941 0.031984 0.022310
v 0.008176 -0.007556 0.038673
v 0.029354 0.007531 0.026479
v 0.005038 -0.031984 0.023899
v 0.024276 -0.031993 0.002576
v 0.009941 -0.031984 -0.022310
v 0.039304 -0.007572 0.004170
v 0.034257 0.007531 -0.019730
v 0.021187 0.031968 -0.012192
v 0.016109 -0.007556 -0.036096
v 0.018157 0.031968 0.016367
v -0.005038 0.031984 -0.023899
vn -0.1854 -0.4471 -0.8751
vn -0.8897 -0.4467 -0.0944
vn -0.6638 0.4476 -0.5991
vn -0.7748 0.4476 0.4465
vn -0.3649 -0.4471 0.8167
vn 0.1854 0.4471 0.8751
vn 0.6638 -0.4476 0.5991
vn -0.0006 -1.0000 -0.0001
vn 0.7748 -0.4476 -0.4465
vn 0.8897 0.4467 0.0944
vn 0.3649 0.4471 -0.8167
vn 0.0006 1.0000 0.0001
vt 0.624280 0.498482
vt 0.586769 0.446851
vt 0.624280 0.395221
vt 0.684975 0.414942
vt 0.684975 0.478761
vt 0.647464 0.530391
vt 0.745670 0.498482
vt 0.745670 0.562300
vt 0.684975 0.582021
vt 0.595412 0.058169
vt 0.656107 0.038448
vt 0.693618 0.090079
vt 0.656107 0.141709
vt 0.595412 0.121988
vt 0.693618 0.026260
vt 0.754313 0.006539
vt 0.791825 0.058169
vt 0.754313 0.109799
vt 0.783182 0.446851
vt 0.843877 0.466572
vt 0.843877 0.530391
vt 0.783182 0.550112
vt 0.815008 0.193339
vt 0.754313 0.173618
vt 0.815008 0.090079
vt 0.852520 0.141709
vt 0.843877 0.363312
vt 0.843877 0.427130
vt 0.745670 0.395221
vt 0.783182 0.343591
vt 0.684975 0.311682
vt 0.745670 0.331403
vt 0.647464 0.363312
vt 0.791825 0.225248
vt 0.754313 0.276878
vt 0.693618 0.257157
vt 0.693618 0.193339
vt 0.595412 0.161430
vt 0.656107 0.244969
vt 0.595412 0.225248
s 0
usemtl Pirate
f 1/1/1 3/2/1 18/3/1 14/4/1 2/5/1
f 1/6/2 2/5/2 7/7/2 6/8/2 4/9/2
f 1/10/3 4/11/3 5/12/3 20/13/3 3/14/3
f 4/15/4 6/16/4 8/17/4 9/18/4 5/12/4
f 7/7/5 12/19/5 10/20/5 8/21/5 6/22/5
f 11/23/6 19/24/6 9/18/6 8/25/6 10/26/6
f 11/27/7 10/28/7 12/19/7 13/29/7 15/30/7
f 2/5/8 14/4/8 13/29/8 12/19/8 7/7/8
f 16/31/9 15/32/9 13/29/9 14/4/9 18/33/9
f 11/34/10 15/35/10 16/36/10 17/37/10 19/24/10
f 3/38/11 20/13/11 17/37/11 16/39/11 18/40/11
f 9/18/12 19/24/12 17/37/12 20/13/12 5/12/12
