# Blender 4.1.1
# www.blender.org
mtllib PirateD4.mtl
o D4
v 0.000000 0.040243 -0.000000
v 0.030674 -0.013414 0.022332
v 0.004003 -0.013414 -0.037730
v -0.034677 -0.013414 0.015398
vn -0.0995 0.3333 0.9375
vn 0.8617 0.3333 -0.3826
vn -0.7622 0.3333 -0.5549
vn -0.0000 -1.0000 -0.0000
vt 0.582334 0.006539
vt 0.582334 0.152571
vt 0.455866 0.079555
vt 0.329398 0.152571
vt 0.455866 0.225588
vt 0.582334 0.298604
s 0
usemtl Pirate
f 1/1/1 4/2/1 2/3/1
f 1/4/2 2/3/2 3/5/2
f 1/6/3 3/5/3 4/2/3
f 3/5/4 2/3/4 4/2/4
