# Blender 4.1.1
# www.blender.org
mtllib PirateD6.mtl
o D6
v 0.023206 0.023235 -0.023263
v 0.023263 0.023235 0.023206
v -0.023263 0.023235 -0.023206
v 0.023206 -0.023235 -0.023263
v -0.023263 -0.023235 -0.023206
v 0.023263 -0.023235 0.023206
v -0.023206 -0.023235 0.023263
v -0.023206 0.023235 0.023263
vn 1.0000 -0.0000 -0.0012
vn -0.0000 1.0000 -0.0000
vn -0.0012 -0.0000 -1.0000
vn -0.0000 -1.0000 -0.0000
vn 0.0012 -0.0000 1.0000
vn -1.0000 -0.0000 0.0012
vt 0.213060 0.316320
vt 0.109799 0.316320
vt 0.109799 0.213060
vt 0.213060 0.213060
vt 0.213060 0.419580
vt 0.109799 0.419580
vt 0.316320 0.213060
vt 0.213060 0.109799
vt 0.316320 0.109799
vt 0.109799 0.109799
vt 0.006539 0.213060
vt 0.006539 0.109799
vt 0.109799 0.006539
vt 0.213060 0.006539
s 0
usemtl Pirate
f 1/1/1 2/2/1 6/3/1 4/4/1
f 1/1/2 3/5/2 8/6/2 2/2/2
f 1/7/3 4/4/3 5/8/3 3/9/3
f 7/10/4 5/8/4 4/4/4 6/3/4
f 7/10/5 6/3/5 2/11/5 8/12/5
f 7/10/6 8/13/6 3/14/6 5/8/6
