# Blender 4.1.1
# www.blender.org
mtllib PirateD8.mtl
o D8
v 0.004246 0.000000 -0.040019
v -0.040019 0.000000 -0.004246
v -0.000000 -0.040243 -0.000000
v 0.040019 0.000000 0.004246
v -0.000000 0.040243 -0.000000
v -0.004246 0.000000 0.040019
vn -0.5132 0.5774 -0.6350
vn -0.5132 -0.5774 -0.6350
vn 0.6350 -0.5774 -0.5132
vn 0.6350 0.5774 -0.5132
vn -0.6350 0.5774 0.5132
vn 0.5132 0.5774 0.6350
vn 0.5132 -0.5774 0.6350
vn -0.6350 -0.5774 0.5132
vt 0.447223 0.716369
vt 0.573691 0.716369
vt 0.510457 0.825893
vt 0.650003 0.704623
vt 0.713236 0.595099
vt 0.776470 0.704623
vt 0.713236 0.814148
vt 0.510457 0.606845
vt 0.383989 0.825893
vt 0.383989 0.606845
vt 0.586769 0.814147
vt 0.586769 0.595099
s 0
usemtl Pirate
f 5/1/1 1/2/1 2/3/1
f 3/4/2 2/5/2 1/6/2
f 3/4/3 1/6/3 4/7/3
f 5/1/4 4/8/4 1/2/4
f 5/1/5 2/3/5 6/9/5
f 5/1/6 6/10/6 4/8/6
f 3/4/7 4/7/7 6/11/7
f 3/4/8 6/12/8 2/5/8
